<svg width="89" height="17" viewBox="0 0 89 17" fill="none" xmlns="http://www.w3.org/2000/svg">
<path d="M12.9308 3H3.06917C1.9264 3 1 3.82829 1 4.85004V13.15C1 14.1717 1.9264 15 3.06917 15H12.9308C14.0736 15 15 14.1717 15 13.15V4.85004C15 3.82829 14.0736 3 12.9308 3Z" stroke="#A0A3BC" stroke-width="2"/>
<path d="M4.5 3C4.5 3.27614 4.27614 3.5 4 3.5C3.72386 3.5 3.5 3.27614 3.5 3V1C3.5 0.723858 3.72386 0.5 4 0.5C4.27614 0.5 4.5 0.723858 4.5 1V3Z" stroke="#A0A3BC" stroke-linecap="round" stroke-linejoin="round"/>
<path d="M12.5 3C12.5 3.27614 12.2761 3.5 12 3.5C11.7239 3.5 11.5 3.27614 11.5 3V1C11.5 0.723858 11.7239 0.5 12 0.5C12.2761 0.5 12.5 0.723858 12.5 1V3Z" stroke="#A0A3BC" stroke-linecap="round" stroke-linejoin="round"/>
<path d="M1 5.5C0.723858 5.5 0.5 5.72386 0.5 6C0.5 6.27614 0.723858 6.5 1 6.5H15C15.2761 6.5 15.5 6.27614 15.5 6C15.5 5.72386 15.2761 5.5 15 5.5H1Z" stroke="#A0A3BC" stroke-linecap="round" stroke-linejoin="round"/>
<path d="M4.62317 8.60718C4.34703 8.60718 4.12317 8.83104 4.12317 9.10718C4.12317 9.38332 4.34703 9.60718 4.62317 9.60718H5.97081C6.24695 9.60718 6.47081 9.38332 6.47081 9.10718C6.47081 8.83104 6.24695 8.60718 5.97081 8.60718H4.62317Z" stroke="#A0A3BC" stroke-linecap="round" stroke-linejoin="round"/>
<path d="M9.83997 8.60718C9.56382 8.60718 9.33997 8.83104 9.33997 9.10718C9.33997 9.38332 9.56382 9.60718 9.83997 9.60718H11.1876C11.4637 9.60718 11.6876 9.38332 11.6876 9.10718C11.6876 8.83104 11.4637 8.60718 11.1876 8.60718H9.83997Z" stroke="#A0A3BC" stroke-linecap="round" stroke-linejoin="round"/>
<path d="M4.62317 11.5596C4.34703 11.5596 4.12317 11.7834 4.12317 12.0596C4.12317 12.3357 4.34703 12.5596 4.62317 12.5596H5.97081C6.24695 12.5596 6.47081 12.3357 6.47081 12.0596C6.47081 11.7834 6.24695 11.5596 5.97081 11.5596H4.62317Z" stroke="#A0A3BC" stroke-linecap="round" stroke-linejoin="round"/>
<path d="M9.83997 11.5596C9.56382 11.5596 9.33997 11.7834 9.33997 12.0596C9.33997 12.3357 9.56382 12.5596 9.83997 12.5596H11.1876C11.4637 12.5596 11.6876 12.3357 11.6876 12.0596C11.6876 11.7834 11.4637 11.5596 11.1876 11.5596H9.83997Z" stroke="#A0A3BC" stroke-linecap="round" stroke-linejoin="round"/>
<path d="M22.48 12.076L25.84 9.16C26.096 8.944 26.304 8.748 26.464 8.572C26.632 8.396 26.764 8.232 26.86 8.08C26.956 7.92 27.02 7.764 27.052 7.612C27.092 7.46 27.112 7.296 27.112 7.12C27.112 6.648 26.972 6.26 26.692 5.956C26.412 5.644 26.028 5.488 25.54 5.488C24.956 5.488 24.508 5.648 24.196 5.968C23.884 6.28 23.728 6.724 23.728 7.3H22.6C22.6 6.892 22.668 6.516 22.804 6.172C22.948 5.82 23.148 5.52 23.404 5.272C23.668 5.024 23.98 4.832 24.34 4.696C24.7 4.552 25.1 4.48 25.54 4.48C25.964 4.48 26.344 4.548 26.68 4.684C27.016 4.812 27.3 4.996 27.532 5.236C27.764 5.468 27.94 5.744 28.06 6.064C28.18 6.384 28.24 6.736 28.24 7.12C28.24 7.408 28.196 7.676 28.108 7.924C28.02 8.172 27.896 8.408 27.736 8.632C27.584 8.856 27.396 9.076 27.172 9.292C26.956 9.5 26.716 9.716 26.452 9.94L23.944 12.016H28.36V13H22.48V12.076ZM32.6209 13.12C32.1249 13.12 31.6889 13.06 31.3129 12.94C30.9369 12.82 30.6209 12.656 30.3649 12.448C30.1169 12.24 29.9289 11.996 29.8009 11.716C29.6809 11.428 29.6209 11.116 29.6209 10.78C29.6209 10.3 29.7729 9.872 30.0769 9.496C30.3809 9.112 30.8289 8.84 31.4209 8.68C31.2049 8.608 31.0009 8.512 30.8089 8.392C30.6249 8.264 30.4609 8.116 30.3169 7.948C30.1729 7.78 30.0609 7.592 29.9809 7.384C29.9009 7.168 29.8609 6.94 29.8609 6.7C29.8609 6.388 29.9209 6.096 30.0409 5.824C30.1609 5.552 30.3369 5.32 30.5689 5.128C30.8009 4.928 31.0889 4.772 31.4329 4.66C31.7769 4.54 32.1729 4.48 32.6209 4.48C33.0689 4.48 33.4649 4.54 33.8089 4.66C34.1529 4.772 34.4409 4.928 34.6729 5.128C34.9049 5.32 35.0809 5.552 35.2009 5.824C35.3209 6.096 35.3809 6.388 35.3809 6.7C35.3809 7.18 35.2289 7.588 34.9249 7.924C34.6289 8.26 34.2609 8.512 33.8209 8.68C34.4209 8.88 34.8689 9.144 35.1649 9.472C35.4689 9.8 35.6209 10.236 35.6209 10.78C35.6209 11.116 35.5569 11.428 35.4289 11.716C35.3089 11.996 35.1209 12.24 34.8649 12.448C34.6169 12.656 34.3049 12.82 33.9289 12.94C33.5529 13.06 33.1169 13.12 32.6209 13.12ZM32.6209 12.112C32.9649 12.112 33.2569 12.076 33.4969 12.004C33.7369 11.924 33.9289 11.824 34.0729 11.704C34.2249 11.576 34.3329 11.428 34.3969 11.26C34.4609 11.084 34.4929 10.9 34.4929 10.708C34.4929 10.484 34.4449 10.28 34.3489 10.096C34.2609 9.912 34.1329 9.752 33.9649 9.616C33.7969 9.472 33.5969 9.36 33.3649 9.28C33.1409 9.192 32.8929 9.132 32.6209 9.1C32.3489 9.132 32.0969 9.192 31.8649 9.28C31.6409 9.36 31.4449 9.468 31.2769 9.604C31.1089 9.74 30.9769 9.904 30.8809 10.096C30.7929 10.28 30.7489 10.484 30.7489 10.708C30.7489 10.9 30.7809 11.084 30.8449 11.26C30.9089 11.428 31.0129 11.576 31.1569 11.704C31.3089 11.824 31.5049 11.924 31.7449 12.004C31.9849 12.076 32.2769 12.112 32.6209 12.112ZM32.6209 8.26C33.1009 8.196 33.4929 8.044 33.7969 7.804C34.1009 7.556 34.2529 7.208 34.2529 6.76C34.2529 6.352 34.1169 6.04 33.8449 5.824C33.5809 5.6 33.1729 5.488 32.6209 5.488C32.0609 5.488 31.6489 5.6 31.3849 5.824C31.1209 6.04 30.9889 6.352 30.9889 6.76C30.9889 7.208 31.1409 7.556 31.4449 7.804C31.7489 8.044 32.1409 8.196 32.6209 8.26ZM38.0852 13.12C37.8532 13.12 37.6532 13.04 37.4852 12.88C37.3252 12.712 37.2452 12.512 37.2452 12.28C37.2452 12.04 37.3252 11.84 37.4852 11.68C37.6532 11.52 37.8532 11.44 38.0852 11.44C38.3172 11.44 38.5132 11.52 38.6732 11.68C38.8412 11.84 38.9252 12.04 38.9252 12.28C38.9252 12.512 38.8412 12.712 38.6732 12.88C38.5132 13.04 38.3172 13.12 38.0852 13.12ZM43.6028 13.12C43.1948 13.12 42.8068 13.052 42.4388 12.916C42.0788 12.78 41.7628 12.548 41.4908 12.22C41.2188 11.884 41.0028 11.44 40.8428 10.888C40.6828 10.328 40.6028 9.632 40.6028 8.8V8.56C40.6028 7.784 40.6828 7.136 40.8428 6.616C41.0028 6.096 41.2188 5.68 41.4908 5.368C41.7628 5.048 42.0788 4.82 42.4388 4.684C42.8068 4.548 43.1948 4.48 43.6028 4.48C44.0108 4.48 44.3948 4.548 44.7548 4.684C45.1228 4.82 45.4428 5.048 45.7148 5.368C45.9868 5.68 46.2028 6.096 46.3628 6.616C46.5228 7.136 46.6028 7.784 46.6028 8.56V8.8C46.6028 9.632 46.5228 10.328 46.3628 10.888C46.2028 11.44 45.9868 11.884 45.7148 12.22C45.4428 12.548 45.1228 12.78 44.7548 12.916C44.3948 13.052 44.0108 13.12 43.6028 13.12ZM43.6028 12.136C43.8508 12.136 44.0868 12.092 44.3108 12.004C44.5428 11.908 44.7428 11.74 44.9108 11.5C45.0868 11.252 45.2228 10.912 45.3188 10.48C45.4228 10.048 45.4748 9.488 45.4748 8.8V8.56C45.4748 7.936 45.4228 7.424 45.3188 7.024C45.2228 6.624 45.0868 6.308 44.9108 6.076C44.7428 5.844 44.5428 5.684 44.3108 5.596C44.0868 5.508 43.8508 5.464 43.6028 5.464C43.3468 5.464 43.1068 5.508 42.8828 5.596C42.6588 5.684 42.4588 5.844 42.2828 6.076C42.1148 6.308 41.9788 6.624 41.8748 7.024C41.7788 7.424 41.7308 7.936 41.7308 8.56V8.8C41.7308 9.488 41.7788 10.048 41.8748 10.48C41.9788 10.912 42.1148 11.252 42.2828 11.5C42.4588 11.74 42.6588 11.908 42.8828 12.004C43.1068 12.092 43.3468 12.136 43.6028 12.136ZM50.7442 13.12C50.0642 13.12 49.5002 12.968 49.0522 12.664C48.6042 12.352 48.3082 11.884 48.1642 11.26H49.2922C49.5162 11.828 50.0002 12.112 50.7442 12.112C51.0322 12.112 51.3002 12.06 51.5482 11.956C51.7962 11.852 52.0122 11.68 52.1962 11.44C52.3802 11.2 52.5282 10.88 52.6402 10.48C52.7522 10.08 52.8162 9.58 52.8322 8.98C52.7202 9.172 52.5842 9.34 52.4242 9.484C52.2642 9.62 52.0882 9.732 51.8962 9.82C51.7122 9.9 51.5202 9.96 51.3202 10C51.1202 10.04 50.9282 10.06 50.7442 10.06C49.9042 10.06 49.2322 9.828 48.7282 9.364C48.2322 8.892 47.9842 8.22 47.9842 7.348V7.228C47.9842 6.828 48.0562 6.46 48.2002 6.124C48.3522 5.788 48.5562 5.5 48.8122 5.26C49.0682 5.012 49.3682 4.82 49.7122 4.684C50.0562 4.548 50.4202 4.48 50.8042 4.48C51.7482 4.48 52.4922 4.788 53.0362 5.404C53.5882 6.02 53.8642 6.992 53.8642 8.32V8.56C53.8642 9.384 53.7802 10.088 53.6122 10.672C53.4442 11.248 53.2162 11.72 52.9282 12.088C52.6482 12.448 52.3202 12.712 51.9442 12.88C51.5682 13.04 51.1682 13.12 50.7442 13.12ZM50.9002 9.052C51.4842 9.052 51.9282 8.904 52.2322 8.608C52.5362 8.312 52.6882 7.888 52.6882 7.336V7.216C52.6882 6.672 52.5322 6.248 52.2202 5.944C51.9162 5.64 51.4762 5.488 50.9002 5.488C50.3162 5.488 49.8722 5.636 49.5682 5.932C49.2642 6.22 49.1122 6.648 49.1122 7.216V7.336C49.1122 7.888 49.2642 8.312 49.5682 8.608C49.8722 8.904 50.3162 9.052 50.9002 9.052ZM56.3898 13.12C56.1578 13.12 55.9578 13.04 55.7898 12.88C55.6298 12.712 55.5498 12.512 55.5498 12.28C55.5498 12.04 55.6298 11.84 55.7898 11.68C55.9578 11.52 56.1578 11.44 56.3898 11.44C56.6218 11.44 56.8178 11.52 56.9778 11.68C57.1458 11.84 57.2298 12.04 57.2298 12.28C57.2298 12.512 57.1458 12.712 56.9778 12.88C56.8178 13.04 56.6218 13.12 56.3898 13.12ZM58.6675 12.076L62.0275 9.16C62.2835 8.944 62.4915 8.748 62.6515 8.572C62.8195 8.396 62.9515 8.232 63.0475 8.08C63.1435 7.92 63.2075 7.764 63.2395 7.612C63.2795 7.46 63.2995 7.296 63.2995 7.12C63.2995 6.648 63.1595 6.26 62.8795 5.956C62.5995 5.644 62.2155 5.488 61.7275 5.488C61.1435 5.488 60.6955 5.648 60.3835 5.968C60.0715 6.28 59.9155 6.724 59.9155 7.3H58.7875C58.7875 6.892 58.8555 6.516 58.9915 6.172C59.1355 5.82 59.3355 5.52 59.5915 5.272C59.8555 5.024 60.1675 4.832 60.5275 4.696C60.8875 4.552 61.2875 4.48 61.7275 4.48C62.1515 4.48 62.5315 4.548 62.8675 4.684C63.2035 4.812 63.4875 4.996 63.7195 5.236C63.9515 5.468 64.1275 5.744 64.2475 6.064C64.3675 6.384 64.4275 6.736 64.4275 7.12C64.4275 7.408 64.3835 7.676 64.2955 7.924C64.2075 8.172 64.0835 8.408 63.9235 8.632C63.7715 8.856 63.5835 9.076 63.3595 9.292C63.1435 9.5 62.9035 9.716 62.6395 9.94L60.1315 12.016H64.5475V13H58.6675V12.076ZM68.8684 13.12C68.4604 13.12 68.0724 13.052 67.7044 12.916C67.3444 12.78 67.0284 12.548 66.7564 12.22C66.4844 11.884 66.2684 11.44 66.1084 10.888C65.9484 10.328 65.8684 9.632 65.8684 8.8V8.56C65.8684 7.784 65.9484 7.136 66.1084 6.616C66.2684 6.096 66.4844 5.68 66.7564 5.368C67.0284 5.048 67.3444 4.82 67.7044 4.684C68.0724 4.548 68.4604 4.48 68.8684 4.48C69.2764 4.48 69.6604 4.548 70.0204 4.684C70.3884 4.82 70.7084 5.048 70.9804 5.368C71.2524 5.68 71.4684 6.096 71.6284 6.616C71.7884 7.136 71.8684 7.784 71.8684 8.56V8.8C71.8684 9.632 71.7884 10.328 71.6284 10.888C71.4684 11.44 71.2524 11.884 70.9804 12.22C70.7084 12.548 70.3884 12.78 70.0204 12.916C69.6604 13.052 69.2764 13.12 68.8684 13.12ZM68.8684 12.136C69.1164 12.136 69.3524 12.092 69.5764 12.004C69.8084 11.908 70.0084 11.74 70.1764 11.5C70.3524 11.252 70.4884 10.912 70.5844 10.48C70.6884 10.048 70.7404 9.488 70.7404 8.8V8.56C70.7404 7.936 70.6884 7.424 70.5844 7.024C70.4884 6.624 70.3524 6.308 70.1764 6.076C70.0084 5.844 69.8084 5.684 69.5764 5.596C69.3524 5.508 69.1164 5.464 68.8684 5.464C68.6124 5.464 68.3724 5.508 68.1484 5.596C67.9244 5.684 67.7244 5.844 67.5484 6.076C67.3804 6.308 67.2444 6.624 67.1404 7.024C67.0444 7.424 66.9964 7.936 66.9964 8.56V8.8C66.9964 9.488 67.0444 10.048 67.1404 10.48C67.2444 10.912 67.3804 11.252 67.5484 11.5C67.7244 11.74 67.9244 11.908 68.1484 12.004C68.3724 12.092 68.6124 12.136 68.8684 12.136ZM73.0698 12.076L76.4298 9.16C76.6858 8.944 76.8938 8.748 77.0538 8.572C77.2218 8.396 77.3538 8.232 77.4498 8.08C77.5458 7.92 77.6098 7.764 77.6418 7.612C77.6818 7.46 77.7018 7.296 77.7018 7.12C77.7018 6.648 77.5618 6.26 77.2818 5.956C77.0018 5.644 76.6178 5.488 76.1298 5.488C75.5458 5.488 75.0978 5.648 74.7858 5.968C74.4738 6.28 74.3178 6.724 74.3178 7.3H73.1898C73.1898 6.892 73.2578 6.516 73.3938 6.172C73.5378 5.82 73.7378 5.52 73.9938 5.272C74.2578 5.024 74.5698 4.832 74.9298 4.696C75.2898 4.552 75.6898 4.48 76.1298 4.48C76.5538 4.48 76.9338 4.548 77.2698 4.684C77.6058 4.812 77.8898 4.996 78.1218 5.236C78.3538 5.468 78.5298 5.744 78.6498 6.064C78.7698 6.384 78.8298 6.736 78.8298 7.12C78.8298 7.408 78.7858 7.676 78.6978 7.924C78.6098 8.172 78.4858 8.408 78.3258 8.632C78.1738 8.856 77.9858 9.076 77.7618 9.292C77.5458 9.5 77.3058 9.716 77.0418 9.94L74.5338 12.016H78.9498V13H73.0698V12.076ZM80.0308 12.076L83.3908 9.16C83.6468 8.944 83.8548 8.748 84.0148 8.572C84.1828 8.396 84.3148 8.232 84.4108 8.08C84.5068 7.92 84.5708 7.764 84.6028 7.612C84.6428 7.46 84.6628 7.296 84.6628 7.12C84.6628 6.648 84.5228 6.26 84.2428 5.956C83.9628 5.644 83.5788 5.488 83.0908 5.488C82.5068 5.488 82.0588 5.648 81.7468 5.968C81.4348 6.28 81.2788 6.724 81.2788 7.3H80.1508C80.1508 6.892 80.2188 6.516 80.3548 6.172C80.4988 5.82 80.6988 5.52 80.9548 5.272C81.2188 5.024 81.5308 4.832 81.8908 4.696C82.2508 4.552 82.6508 4.48 83.0908 4.48C83.5148 4.48 83.8948 4.548 84.2308 4.684C84.5668 4.812 84.8508 4.996 85.0828 5.236C85.3148 5.468 85.4908 5.744 85.6108 6.064C85.7308 6.384 85.7908 6.736 85.7908 7.12C85.7908 7.408 85.7468 7.676 85.6588 7.924C85.5708 8.172 85.4468 8.408 85.2868 8.632C85.1348 8.856 84.9468 9.076 84.7228 9.292C84.5068 9.5 84.2668 9.716 84.0028 9.94L81.4948 12.016H85.9108V13H80.0308V12.076Z" fill="#A0A3BC"/>
</svg>
