<svg width="90" height="30" viewBox="0 0 90 30" fill="none" xmlns="http://www.w3.org/2000/svg">
<rect width="90" height="30" rx="8" fill="#F56E1E"/>
<path d="M17.4 10.2H18.716V14.386H23.924V10.2H25.24V20H23.924V15.534H18.716V20H17.4V10.2ZM30.8367 20.14C30.3607 20.14 29.9081 20.0653 29.4787 19.916C29.0494 19.7573 28.6714 19.524 28.3447 19.216C28.0181 18.8987 27.7567 18.502 27.5607 18.026C27.3647 17.55 27.2667 16.9947 27.2667 16.36V16.08C27.2667 15.4827 27.3647 14.9553 27.5607 14.498C27.7567 14.0407 28.0181 13.6627 28.3447 13.364C28.6714 13.056 29.0494 12.8273 29.4787 12.678C29.9081 12.5193 30.3607 12.44 30.8367 12.44C31.3127 12.44 31.7654 12.5193 32.1947 12.678C32.6241 12.8273 33.0021 13.056 33.3287 13.364C33.6554 13.6627 33.9167 14.0407 34.1127 14.498C34.3087 14.9553 34.4067 15.4827 34.4067 16.08V16.36C34.4067 16.9947 34.3087 17.55 34.1127 18.026C33.9167 18.502 33.6554 18.8987 33.3287 19.216C33.0021 19.524 32.6241 19.7573 32.1947 19.916C31.7654 20.0653 31.3127 20.14 30.8367 20.14ZM30.8367 19.02C31.1167 19.02 31.3967 18.9733 31.6767 18.88C31.9567 18.7773 32.2041 18.6233 32.4187 18.418C32.6334 18.2033 32.8061 17.928 32.9367 17.592C33.0767 17.256 33.1467 16.8453 33.1467 16.36V16.08C33.1467 15.632 33.0767 15.2493 32.9367 14.932C32.8061 14.6147 32.6334 14.3533 32.4187 14.148C32.2041 13.9427 31.9567 13.7933 31.6767 13.7C31.3967 13.6067 31.1167 13.56 30.8367 13.56C30.5567 13.56 30.2767 13.6067 29.9967 13.7C29.7167 13.7933 29.4694 13.9427 29.2547 14.148C29.0401 14.3533 28.8627 14.6147 28.7227 14.932C28.5921 15.2493 28.5267 15.632 28.5267 16.08V16.36C28.5267 16.8453 28.5921 17.256 28.7227 17.592C28.8627 17.928 29.0401 18.2033 29.2547 18.418C29.4694 18.6233 29.7167 18.7773 29.9967 18.88C30.2767 18.9733 30.5567 19.02 30.8367 19.02ZM36.1513 12.58H39.3713C40.2859 12.58 40.9579 12.7713 41.3873 13.154C41.8166 13.5273 42.0312 14.0127 42.0312 14.61C42.0312 14.7687 42.0033 14.932 41.9473 15.1C41.8913 15.2587 41.8119 15.408 41.7093 15.548C41.6159 15.688 41.4993 15.8093 41.3593 15.912C41.2286 16.0147 41.0793 16.094 40.9113 16.15C41.3686 16.262 41.7139 16.4767 41.9473 16.794C42.1899 17.102 42.3113 17.466 42.3113 17.886C42.3113 18.53 42.0966 19.0433 41.6673 19.426C41.2379 19.8087 40.5659 20 39.6513 20H36.1513V12.58ZM39.6513 18.908C40.1739 18.908 40.5426 18.8147 40.7573 18.628C40.9719 18.4413 41.0793 18.1753 41.0793 17.83C41.0793 17.4753 40.9719 17.2047 40.7573 17.018C40.5426 16.822 40.1739 16.724 39.6513 16.724H37.3833V18.908H39.6513ZM39.3713 15.716C39.9033 15.716 40.2719 15.6227 40.4773 15.436C40.6919 15.2493 40.7993 14.9927 40.7993 14.666C40.7993 14.358 40.6919 14.1153 40.4773 13.938C40.2719 13.7607 39.9033 13.672 39.3713 13.672H37.3833V15.716H39.3713ZM47.1473 20.14C46.6713 20.14 46.2186 20.0653 45.7893 19.916C45.3599 19.7573 44.9819 19.524 44.6553 19.216C44.3286 18.8987 44.0673 18.502 43.8713 18.026C43.6753 17.55 43.5773 16.9947 43.5773 16.36V16.08C43.5773 15.4827 43.6753 14.9553 43.8713 14.498C44.0673 14.0407 44.3286 13.6627 44.6553 13.364C44.9819 13.056 45.3599 12.8273 45.7893 12.678C46.2186 12.5193 46.6713 12.44 47.1473 12.44C47.6233 12.44 48.0759 12.5193 48.5053 12.678C48.9346 12.8273 49.3126 13.056 49.6393 13.364C49.9659 13.6627 50.2273 14.0407 50.4233 14.498C50.6193 14.9553 50.7173 15.4827 50.7173 16.08V16.36C50.7173 16.9947 50.6193 17.55 50.4233 18.026C50.2273 18.502 49.9659 18.8987 49.6393 19.216C49.3126 19.524 48.9346 19.7573 48.5053 19.916C48.0759 20.0653 47.6233 20.14 47.1473 20.14ZM47.1473 19.02C47.4273 19.02 47.7073 18.9733 47.9873 18.88C48.2673 18.7773 48.5146 18.6233 48.7293 18.418C48.9439 18.2033 49.1166 17.928 49.2473 17.592C49.3873 17.256 49.4573 16.8453 49.4573 16.36V16.08C49.4573 15.632 49.3873 15.2493 49.2473 14.932C49.1166 14.6147 48.9439 14.3533 48.7293 14.148C48.5146 13.9427 48.2673 13.7933 47.9873 13.7C47.7073 13.6067 47.4273 13.56 47.1473 13.56C46.8673 13.56 46.5873 13.6067 46.3073 13.7C46.0273 13.7933 45.7799 13.9427 45.5653 14.148C45.3506 14.3533 45.1733 14.6147 45.0333 14.932C44.9026 15.2493 44.8373 15.632 44.8373 16.08V16.36C44.8373 16.8453 44.9026 17.256 45.0333 17.592C45.1733 17.928 45.3506 18.2033 45.5653 18.418C45.7799 18.6233 46.0273 18.7773 46.3073 18.88C46.5873 18.9733 46.8673 19.02 47.1473 19.02ZM55.3318 20.14C54.8558 20.14 54.4125 20.0653 54.0018 19.916C53.5911 19.7573 53.2365 19.524 52.9378 19.216C52.6391 18.8987 52.4011 18.502 52.2238 18.026C52.0558 17.55 51.9718 16.9947 51.9718 16.36V16.08C51.9718 15.4827 52.0651 14.9553 52.2518 14.498C52.4385 14.0407 52.6858 13.6627 52.9938 13.364C53.3018 13.056 53.6565 12.8273 54.0578 12.678C54.4685 12.5193 54.8931 12.44 55.3318 12.44C55.7705 12.44 56.1625 12.5007 56.5078 12.622C56.8625 12.7433 57.1658 12.9113 57.4178 13.126C57.6791 13.3407 57.8891 13.5927 58.0478 13.882C58.2158 14.1713 58.3371 14.484 58.4118 14.82H57.1518C57.0771 14.6427 56.9885 14.4793 56.8858 14.33C56.7925 14.1713 56.6711 14.036 56.5218 13.924C56.3818 13.812 56.2138 13.7233 56.0178 13.658C55.8218 13.5927 55.5931 13.56 55.3318 13.56C55.0611 13.56 54.7998 13.6113 54.5478 13.714C54.2958 13.8073 54.0718 13.9567 53.8758 14.162C53.6798 14.358 53.5211 14.6147 53.3998 14.932C53.2878 15.2493 53.2318 15.632 53.2318 16.08V16.36C53.2318 16.836 53.2878 17.2467 53.3998 17.592C53.5211 17.928 53.6798 18.2033 53.8758 18.418C54.0718 18.6233 54.2958 18.7773 54.5478 18.88C54.7998 18.9733 55.0611 19.02 55.3318 19.02C55.7891 19.02 56.1718 18.908 56.4798 18.684C56.7971 18.46 57.0211 18.152 57.1518 17.76H58.4118C58.2345 18.4973 57.8705 19.0807 57.3198 19.51C56.7691 19.93 56.1065 20.14 55.3318 20.14ZM61.7847 13.672H59.2507V12.58H65.5507V13.672H63.0167V20H61.7847V13.672ZM66.954 12.58H68.186V15.38H69.964C70.8973 15.38 71.5833 15.5853 72.022 15.996C72.47 16.4067 72.694 16.976 72.694 17.704C72.694 18.4133 72.47 18.9733 72.022 19.384C71.5833 19.7947 70.8973 20 69.964 20H66.954V12.58ZM69.894 18.908C70.4727 18.908 70.8787 18.8053 71.112 18.6C71.3453 18.3947 71.462 18.0913 71.462 17.69C71.462 17.2887 71.3453 16.9853 71.112 16.78C70.8787 16.5747 70.4727 16.472 69.894 16.472H68.186V18.908H69.894Z" fill="white"/>
</svg>
